<svg width="24" height="24" viewBox="0 0 24 24" fill="none" xmlns="http://www.w3.org/2000/svg">
<path d="M0 5C0 2.23858 2.23858 0 5 0H19C21.7614 0 24 2.23858 24 5V19C24 21.7614 21.7614 24 19 24H5C2.23858 24 0 21.7614 0 19V5Z" fill="url(#paint0_linear_4_26)"/>
<path d="M16.7542 12.2319C14.0355 13.1301 13.1302 14.0356 12.2319 16.7542C12.158 16.9777 11.842 16.9777 11.7681 16.7542C10.8699 14.0355 9.96435 13.1302 7.24575 12.2319C7.02225 12.158 7.02225 11.842 7.24575 11.7681C9.9645 10.8699 10.8698 9.96435 11.7681 7.24575C11.842 7.02225 12.158 7.02225 12.2319 7.24575C13.1301 9.9645 14.0357 10.8698 16.7542 11.7681C16.9778 11.842 16.9778 12.158 16.7542 12.2319Z" fill="white"/>
<defs>
<linearGradient id="paint0_linear_4_26" x1="0.316412" y1="3.66797" x2="20.7656" y2="24.1875" gradientUnits="userSpaceOnUse">
<stop stop-color="#202652"/>
<stop offset="1" stop-color="#7554B8"/>
</linearGradient>
</defs>
</svg>
